<svg xmlns="http://www.w3.org/2000/svg" viewBox="0 0 486 311" width="486" height="311"><title>ModernOps Final logo-01-ai</title><style>		.s0 { fill: #000000 } 	</style><g id="Layer 1"><g id="&lt;Group&gt;"><path id="&lt;Path&gt;" class="s0" d="m485.3 153.7c0 86.8-70.3 157.1-157.1 157.1-50.7 0-95.8-24-124.5-61.3l42-63.2c13 32.9 45.1 56.1 82.5 56.1 49 0 88.7-39.7 88.7-88.7 0-48.9-39.7-88.6-88.7-88.6q-0.9 0-1.8 0l42.1-63.2c67.3 17.7 116.8 79 116.8 151.8z"></path><path id="&lt;Path&gt;" class="s0" d="m348.4 0.3l-45.6 68.5-62.7 94.3-33.4 50.2-13.7 20.5-0.5 0.8h-45.4l-3.6-5.4-10.6-15.9-60.4-90.8v186.8h-72.4v-308.1h65.4l7 10.4 97.3 146.3 1.4-2.1 98.3-147.8q-0.1 0-0.2 0.1 0 0-0.1 0l5.3-7.8z"></path></g></g></svg>